# Blender OBJ File. Restructured for TUG.

o pivot

v -0.5217 -0.0269 0.0573
v -0.6215 -0.0269 0.0534
v -0.6176 -0.0269 -0.0463
v -0.5178 -0.0269 -0.0424
v -0.6176 0.0730 -0.0463
v -0.6215 0.0730 0.0534
v -0.5217 0.0730 0.0573
v -0.5178 0.0730 -0.0424
# 8 vertices

vt 1.0000 1.0000
vt 0.0000 1.0000
vt 0.0000 0.0000
vt 1.0000 0.0000
# 4 vertex textures

vn 0.0000 -1.0000 -0.0000
vn -0.0000 1.0000 0.0000
vn 0.0390 0.0000 -0.9992
vn -0.9992 0.0000 -0.0390
vn -0.0390 -0.0000 0.9992
vn 0.9992 -0.0000 0.0390
# 6 vertex normals

s 1
f 1/1/1 2/2/1 3/3/1 4/4/1
f 5/4/2 6/1/2 7/2/2 8/3/2
f 3/4/3 5/1/3 8/2/3 4/3/3
f 2/4/4 6/1/4 5/2/4 3/3/4
f 1/4/5 7/1/5 6/2/5 2/3/5
f 4/4/6 8/1/6 7/2/6 1/3/6
# 6 polygons

o hand_atch

v -0.2694 0.0146 0.0769
v -0.3692 0.0146 0.0730
v -0.3653 0.0146 -0.0268
v -0.2655 0.0146 -0.0229
v -0.3653 0.1146 -0.0268
v -0.3692 0.1146 0.0730
v -0.2694 0.1146 0.0769
v -0.2655 0.1146 -0.0229
# 8 vertices

vt 1.0000 1.0000
vt 0.0000 1.0000
vt 0.0000 0.0000
vt 1.0000 0.0000
# 4 vertex textures

vn 0.0000 -1.0000 -0.0000
vn -0.0000 1.0000 0.0000
vn 0.0390 0.0000 -0.9992
vn -0.9992 0.0000 -0.0390
vn -0.0390 -0.0000 0.9992
vn 0.9992 -0.0000 0.0390
# 6 vertex normals

s 1
f 9/5/7 10/6/7 11/7/7 12/8/7
f 13/8/8 14/5/8 15/6/8 16/7/8
f 11/8/9 13/5/9 16/6/9 12/7/9
f 10/8/10 14/5/10 13/6/10 11/7/10
f 9/8/11 15/5/11 14/6/11 10/7/11
f 12/8/12 16/5/12 15/6/12 9/7/12
# 6 polygons

o crystal_shard

v 0.6388 0.2576 0.0186
v 0.6762 0.2261 0.0086
v 0.6463 0.2367 -0.0162
v 0.5322 -0.0762 0.0564
v 0.3241 -0.0742 0.0435
v 0.4426 0.0469 -0.1460
v 0.5255 0.0349 -0.1217
v -0.4737 -0.0150 -0.0992
v -0.4888 0.1012 -0.0962
v 0.4280 0.2782 -0.1407
v 0.3018 0.0265 0.2326
v 0.3163 0.2480 0.2454
v -0.4997 0.0945 0.1064
v -0.4848 -0.0217 0.1034
v 0.5538 0.2669 0.1942
v 0.6446 0.2418 0.1312
v 0.4674 0.4024 0.0669
v 0.4706 0.3118 0.2158
v 0.3255 0.3664 0.0581
v 0.4912 0.3033 -0.1207
v 0.6595 0.0913 0.0647
v 0.6164 0.0345 0.0619
v 0.5694 0.0805 -0.1066
v 0.6880 0.1549 0.0093
v 0.6975 0.2059 0.0248
v 0.5121 -0.0087 0.1888
v 0.5366 0.2758 -0.1083
v -0.5017 0.1560 0.0066
v -0.4718 -0.0765 0.0004
v 0.6596 0.1065 0.0862
v 0.6138 0.1089 0.1722
v 0.6662 0.1421 0.1249
v -0.6160 0.0232 -0.0039
v 0.6863 0.2079 0.1047
# 34 vertices

vt 0.2109 0.6799
vt 0.2201 0.6977
vt 0.1953 0.6963
vt 0.3757 0.5908
vt 0.3853 0.5106
vt 0.4773 0.5609
vt 0.4447 0.6263
vt 0.0019 0.2345
vt 0.0547 0.2229
vt 0.0866 0.6243
vt 0.0024 0.6500
vt 0.3041 0.5069
vt 0.2272 0.5302
vt 0.1774 0.1857
vt 0.2421 0.1824
vt 0.2389 0.6116
vt 0.2461 0.6483
vt 0.1735 0.6133
vt 0.2233 0.5852
vt 0.1528 0.5606
vt 0.1111 0.6527
vt 0.3121 0.6602
vt 0.3454 0.6377
vt 0.4071 0.6766
vt 0.3043 0.6959
vt 0.2079 0.7339
vt 0.2452 0.7030
vt 0.3223 0.5835
vt 0.1343 0.6770
vt 0.1005 0.7442
vt 0.1137 0.2004
vt 0.3011 0.1850
vt 0.3535 0.1789
vt 0.3042 0.6526
vt 0.2869 0.6263
vt 0.2840 0.6504
vt 0.1654 0.0523
vt 0.0359 0.7238
vt 0.2587 0.6693
# 39 vertex textures

vn 0.5526 0.7627 -0.3362
vn 0.0267 -0.8488 -0.5280
vn -0.0522 0.0194 -0.9984
vn -0.1592 -0.0463 0.9862
vn 0.5109 0.7387 0.4396
vn -0.1886 0.8581 -0.4776
vn 0.7313 -0.5868 -0.3477
vn 0.6609 0.1029 -0.7434
vn 0.6608 0.1029 -0.7434
vn -0.0451 -0.8876 0.4584
vn -0.2425 0.8259 0.5091
vn 0.7422 -0.5597 -0.3687
vn 0.6609 0.1047 -0.7432
vn 0.5518 0.7639 -0.3346
vn -0.1885 0.8575 -0.4787
vn -0.2419 0.8252 0.5104
vn -0.0227 -0.8834 0.4681
vn 0.0308 -0.8509 -0.5245
vn 0.5536 0.7634 -0.3328
vn 0.7207 -0.5672 0.3987
vn 0.7204 -0.5672 0.3990
vn 0.7208 -0.5665 0.3994
vn -0.4996 -0.7422 -0.4467
vn -0.5416 -0.7686 0.3406
vn -0.6506 -0.1028 0.7524
vn -0.7166 0.5875 0.3760
vn -0.6741 0.6136 -0.4112
vn -0.5655 -0.0518 -0.8231
vn 0.2859 0.0399 -0.9574
vn 0.2863 0.0400 -0.9573
vn 0.2866 0.0401 -0.9572
vn 0.6554 0.7518 0.0727
vn 0.6553 0.7519 0.0724
vn 0.6552 0.7519 0.0736
vn 0.6548 0.7518 0.0776
vn 0.9520 -0.2585 0.1641
vn 0.9543 -0.2688 0.1306
vn 0.9471 -0.2677 0.1771
vn 0.9473 -0.2406 0.2113
vn 0.6072 0.0911 0.7893
vn 0.6623 0.0254 0.7488
vn 0.6087 0.0914 0.7881
vn 0.5902 0.1105 0.7997
vn 0.2229 -0.0528 0.9734
vn 0.2129 -0.0592 0.9753
vn 0.2050 -0.0553 0.9772
vn 0.2189 -0.0522 0.9744
vn 0.2871 0.0401 -0.9571
vn 0.6556 0.7517 0.0717
vn 0.9599 -0.2678 0.0833
vn 0.9448 -0.2798 0.1704
vn 0.2006 -0.0610 0.9778
vn 0.2158 -0.0702 0.9739
vn 0.5871 0.1113 0.8018
# 54 vertex normals

s off
f 17/9/13 18/10/13 19/11/13
f 20/12/14 21/13/14 22/14/14 23/15/14
f 24/16/15 25/17/15 26/18/15 22/19/15
f 27/20/16 28/21/16 29/22/16 30/23/16
f 31/24/17 32/25/17 33/26/17 34/27/17
f 26/18/18 35/28/18 33/26/18 36/29/18
f 37/30/19 38/31/19 39/32/19 40/33/19
f 40/34/20 19/11/21 18/10/20 41/35/21
f 20/12/22 42/36/22 27/20/22 21/13/22
f 33/26/23 35/28/23 28/21/23 34/27/23
f 39/32/24 38/31/24 20/12/24 23/15/24
f 43/37/25 19/11/25 40/34/25 39/38/25
f 33/26/26 17/9/26 19/11/26 43/37/26
f 44/39/27 35/28/27 26/18/27 25/17/27
f 28/21/28 35/28/28 44/39/28 29/22/28
f 27/20/29 30/23/29 45/40/29 21/13/29
f 22/14/30 21/13/30 45/40/30 24/41/30
f 43/37/31 36/29/31 33/26/31
f 46/42/32 47/43/32 38/31/32 37/30/32
f 38/31/33 47/43/33 42/36/33 20/12/33
f 46/42/34 48/44/34 47/43/34
f 24/41/35 45/40/35 49/45/35
f 45/40/36 30/23/36 49/45/36
f 30/23/37 29/22/37 49/45/37
f 29/22/38 44/39/38 49/45/38
f 44/39/39 25/17/39 49/45/39
f 25/17/40 24/16/40 49/45/40
s 1
f 43/37/41 39/38/42 23/46/43 36/29/43
f 17/9/44 50/47/45 41/35/46 18/10/47
f 41/35/48 50/47/49 37/30/50 40/33/51
f 47/43/52 48/44/53 50/47/54 32/25/55
f 31/24/56 34/27/57 42/36/58 47/43/59
f 22/19/60 26/18/60 36/29/43 23/46/43
f 17/9/44 33/26/61 32/25/61 50/47/45
f 50/47/49 48/44/62 46/42/63 37/30/50
f 27/20/64 42/36/58 34/27/57 28/21/65
f 32/25/55 31/24/66 47/43/52
# 38 polygons

o crystal_coll

v -0.5713 -0.0125 -0.1481
v 0.6198 0.0624 -0.1867
v 0.6432 -0.0828 0.0531
v -0.5513 -0.0899 -0.0186
v -0.5554 0.1637 -0.0723
v -0.5524 0.1200 0.1132
v 0.6457 0.3511 0.2547
v 0.6371 0.4172 -0.1023
v -0.5721 -0.0346 0.1113
v 0.6116 0.0348 0.2543
# 10 vertices

vt 1.0000 0.0000
vt 1.0000 1.0000
vt 0.0000 1.0000
vt 0.0000 0.0000
vt 1.0000 0.5000
vt 0.0000 0.5000
# 6 vertex textures

vn 0.0366 -0.8539 -0.5191
vn -0.2037 0.9588 0.1979
vn -0.1198 0.0088 0.9928
vn -0.0743 -0.5459 0.8346
vn -0.0810 -0.4892 0.8684
vn -0.9996 0.0274 0.0115
vn -0.9996 0.0276 0.0115
vn -0.0132 -0.8871 0.4614
vn 0.9997 -0.0249 -0.0021
vn -0.0677 0.2921 -0.9540
# 10 vertex normals

s 1
f 51/48/67 52/49/67 53/50/67 54/51/67
f 55/51/68 56/48/68 57/49/68 58/50/68
f 57/50/69 56/48/69 59/52/70 60/51/71
f 51/51/72 54/48/73 59/52/72 56/49/73 55/50/73
f 59/48/70 54/50/74 53/53/74 60/51/71
f 53/51/75 52/48/75 58/49/75 57/50/75 60/53/75
f 52/51/76 51/48/76 55/49/76 58/50/76
# 7 polygons

